<svg xmlns="http://www.w3.org/2000/svg" viewBox="0 0 32 40" x="0px" y="0px"><path d="M16,14.5A5.5,5.5,0,1,0,10.5,9,5.51,5.51,0,0,0,16,14.5Zm0-10A4.5,4.5,0,1,1,11.5,9,4.51,4.51,0,0,1,16,4.5Z"/><path d="M16,15.5A10.51,10.51,0,0,0,5.5,26v1.76a.74.74,0,0,0,.74.74H25.76a.74.74,0,0,0,.74-.74V26A10.51,10.51,0,0,0,16,15.5Zm9.5,12H6.5V26a9.5,9.5,0,0,1,19,0Z"/><text x="0" y="47" fill="#000000" font-size="5px" font-weight="bold" font-family="'Helvetica Neue', Helvetica, Arial-Unicode, Arial, Sans-serif">Created by Petr Bilek</text><text x="0" y="52" fill="#000000" font-size="5px" font-weight="bold" font-family="'Helvetica Neue', Helvetica, Arial-Unicode, Arial, Sans-serif">from the Noun Project</text></svg>